# xmcd
#
# Track frame offsets: 
#        150
#        20148
#        35946
#        47019
#        62517
#        79665
#        96288
#        113511
#        129084
#        145707
#
# Disc length: 2165 seconds
#
# Revision: 0
# Processed by: cddbd v1.5.2PL0 Copyright (c) Steve Scherf et al.
# Submitted via: ExactAudioCopy v1.0b3
#
DISCID=7e08730a
DTITLE=Bret Blackshear - Doesn't Get Better Than This!
DYEAR=1900
DGENRE=Blues
TTITLE0=Can't Get Up
TTITLE1=Doesn't Get Better Than This
TTITLE2=It's All Good
TTITLE3=Kid From Down Home
TTITLE4=Now You See Me, Now You Don't
TTITLE5=A Little Smile, A Little Pain
TTITLE6=Far From Home
TTITLE7=On My Butt
TTITLE8=Role Reversal Blues
TTITLE9=Dream Of You
EXTD=
EXTT0=
EXTT1=
EXTT2=
EXTT3=
EXTT4=
EXTT5=
EXTT6=
EXTT7=
EXTT8=
EXTT9=
PLAYORDER=
